<svg width="1280" height="900" viewBox="0 0 1280 900" fill="none" xmlns="http://www.w3.org/2000/svg">
<rect width="1280" height="900" fill="#F0F8DD"/>
<path d="M659.5 514.5C659.5 530.628 649.102 543.5 636.5 543.5C623.898 543.5 613.5 530.628 613.5 514.5C613.5 498.372 623.898 485.5 636.5 485.5C649.102 485.5 659.5 498.372 659.5 514.5Z" fill="#A7BF70" stroke="black"/>
<path d="M582 403.581C595.968 411.646 601.916 427.086 595.615 438C589.314 448.914 572.968 451.483 559 443.419C545.033 435.354 539.084 419.914 545.386 409C551.687 398.086 568.033 395.517 582 403.581Z" fill="#A7BF70" stroke="black"/>
<path d="M662.5 445.5C662.5 461.628 652.102 474.5 639.5 474.5C626.898 474.5 616.5 461.628 616.5 445.5C616.5 429.372 626.898 416.5 639.5 416.5C652.102 416.5 662.5 429.372 662.5 445.5Z" fill="#A7BF70" stroke="black"/>
<path d="M689.973 404.211C703.499 395.427 719.957 397.136 726.821 407.706C733.685 418.275 728.552 434.006 715.026 442.79C701.5 451.574 685.042 449.864 678.178 439.295C671.314 428.725 676.446 412.995 689.973 404.211Z" fill="#A7BF70" stroke="black"/>
<path d="M659.5 583.5C659.5 599.628 649.102 612.5 636.5 612.5C623.898 612.5 613.5 599.628 613.5 583.5C613.5 567.372 623.898 554.5 636.5 554.5C649.102 554.5 659.5 567.372 659.5 583.5Z" fill="#A7BF70" stroke="black"/>
<path d="M659.5 652.5C659.5 668.628 649.102 681.5 636.5 681.5C623.898 681.5 613.5 668.628 613.5 652.5C613.5 636.372 623.898 623.5 636.5 623.5C649.102 623.5 659.5 636.372 659.5 652.5Z" fill="#A7BF70" stroke="black"/>
<path d="M619.309 341.5L636.5 196.254L653.691 341.5H619.309Z" fill="#F7C6C6" stroke="black"/>
<path d="M654.752 373.5L638 504.071L621.248 373.5H654.752Z" fill="#F7C6C6" stroke="black"/>
<path d="M650.75 338.301L817.137 355.5L650.75 372.699V338.301Z" fill="#F7C6C6" stroke="black"/>
<path d="M628.25 372.699L461.863 355.5L628.25 338.301V372.699Z" fill="#F7C6C6" stroke="black"/>
<path d="M624.462 368.362L528.603 264.029L646.798 342.124L624.462 368.362Z" fill="#D7B1B1" stroke="black"/>
<path d="M628.21 340.122L733.038 252.71L653.358 363.553L628.21 340.122Z" fill="#D7B1B1" stroke="black"/>
<path d="M648.891 368.216L540.13 465.685L623.039 345.433L648.891 368.216Z" fill="#D7B1B1" stroke="black"/>
<path d="M650.452 343.856L747.655 465.955L626.035 368.184L650.452 343.856Z" fill="#D7B1B1" stroke="black"/>
<circle cx="636.5" cy="355.5" r="20" fill="#F8D9D9" stroke="black"/>
<path d="M529.339 701.054C527.411 691.459 534.748 682.5 544.536 682.5H732.058C741.654 682.5 748.945 691.131 747.34 700.591L717.495 876.591C716.231 884.045 709.774 889.5 702.213 889.5H579.908C572.525 889.5 566.166 884.292 564.712 877.054L529.339 701.054Z" fill="#F7C6C6" stroke="black"/>
</svg>
