<svg width="365" height="698" viewBox="0 0 365 698" fill="none" xmlns="http://www.w3.org/2000/svg">
<path d="M202.5 322.5C202.5 338.628 192.102 351.5 179.5 351.5C166.898 351.5 156.5 338.628 156.5 322.5C156.5 306.372 166.898 293.5 179.5 293.5C192.102 293.5 202.5 306.372 202.5 322.5Z" fill="#A7BF70" stroke="black"/>
<path d="M125 211.581C138.968 219.646 144.916 235.086 138.615 246C132.314 256.914 115.968 259.483 102 251.419C88.0329 243.354 82.0844 227.914 88.3856 217C94.6869 206.086 111.033 203.517 125 211.581Z" fill="#A7BF70" stroke="black"/>
<path d="M205.5 253.5C205.5 269.628 195.102 282.5 182.5 282.5C169.898 282.5 159.5 269.628 159.5 253.5C159.5 237.372 169.898 224.5 182.5 224.5C195.102 224.5 205.5 237.372 205.5 253.5Z" fill="#A7BF70" stroke="black"/>
<path d="M232.973 212.211C246.499 203.427 262.957 205.136 269.821 215.706C276.685 226.275 271.552 242.006 258.026 250.79C244.5 259.574 228.042 257.864 221.178 247.295C214.314 236.725 219.446 220.995 232.973 212.211Z" fill="#A7BF70" stroke="black"/>
<path d="M202.5 391.5C202.5 407.628 192.102 420.5 179.5 420.5C166.898 420.5 156.5 407.628 156.5 391.5C156.5 375.372 166.898 362.5 179.5 362.5C192.102 362.5 202.5 375.372 202.5 391.5Z" fill="#A7BF70" stroke="black"/>
<path d="M202.5 460.5C202.5 476.628 192.102 489.5 179.5 489.5C166.898 489.5 156.5 476.628 156.5 460.5C156.5 444.372 166.898 431.5 179.5 431.5C192.102 431.5 202.5 444.372 202.5 460.5Z" fill="#A7BF70" stroke="black"/>
<path d="M162.309 149.5L179.5 4.254L196.691 149.5H162.309Z" fill="#F7C6C6" stroke="black"/>
<path d="M197.752 181.5L181 312.071L164.248 181.5H197.752Z" fill="#F7C6C6" stroke="black"/>
<path d="M193.75 146.301L360.137 163.5L193.75 180.699V146.301Z" fill="#F7C6C6" stroke="black"/>
<path d="M171.25 180.699L4.86285 163.5L171.25 146.301V180.699Z" fill="#F7C6C6" stroke="black"/>
<path d="M167.462 176.362L71.6032 72.0289L189.798 150.124L167.462 176.362Z" fill="#D7B1B1" stroke="black"/>
<path d="M171.21 148.122L276.038 60.7096L196.358 171.553L171.21 148.122Z" fill="#D7B1B1" stroke="black"/>
<path d="M191.891 176.216L83.1302 273.685L166.039 153.433L191.891 176.216Z" fill="#D7B1B1" stroke="black"/>
<path d="M193.452 151.856L290.655 273.955L169.035 176.184L193.452 151.856Z" fill="#D7B1B1" stroke="black"/>
<circle cx="179.5" cy="163.5" r="20" fill="#F8D9D9" stroke="black"/>
<path d="M72.3395 509.054C70.411 499.459 77.7484 490.5 87.5356 490.5H275.058C284.654 490.5 291.945 499.131 290.34 508.591L260.495 684.591C259.231 692.045 252.774 697.5 245.213 697.5H122.908C115.525 697.5 109.166 692.292 107.712 685.054L72.3395 509.054Z" fill="#F7C6C6" stroke="black"/>
</svg>
