<svg width="1042" height="462" viewBox="0 0 1042 462" fill="none" xmlns="http://www.w3.org/2000/svg">
<mask id="path-1-inside-1_40_184" fill="white">
<path fill-rule="evenodd" clip-rule="evenodd" d="M655.676 378.772C690.039 427.977 758.279 461.503 836.851 461.503C949.988 461.503 1041.7 391.994 1041.7 306.251C1041.7 268.35 1023.78 233.62 994.012 206.665C1019.85 162.351 1024.32 112.909 1001.11 73.9581C965.348 13.949 876.414 -0.114451 795.554 38.601C762.827 21.8083 723.35 12 680.851 12C618.024 12 561.803 33.4354 524.225 67.1828C487.273 26.5977 425.485 0 355.5 0C242.364 0 150.649 69.5084 150.649 155.251C150.649 161.887 151.198 168.426 152.264 174.843C64.7399 188.58 0 237.556 0 295.868C0 364.831 90.5504 420.736 202.25 420.736C260.037 420.736 312.163 405.773 349.019 381.781C386.067 407.52 440.091 423.736 500.25 423.736C562.721 423.736 618.577 406.249 655.676 378.772Z"/>
</mask>
<path fill-rule="evenodd" clip-rule="evenodd" d="M655.676 378.772C690.039 427.977 758.279 461.503 836.851 461.503C949.988 461.503 1041.7 391.994 1041.7 306.251C1041.7 268.35 1023.78 233.62 994.012 206.665C1019.85 162.351 1024.32 112.909 1001.11 73.9581C965.348 13.949 876.414 -0.114451 795.554 38.601C762.827 21.8083 723.35 12 680.851 12C618.024 12 561.803 33.4354 524.225 67.1828C487.273 26.5977 425.485 0 355.5 0C242.364 0 150.649 69.5084 150.649 155.251C150.649 161.887 151.198 168.426 152.264 174.843C64.7399 188.58 0 237.556 0 295.868C0 364.831 90.5504 420.736 202.25 420.736C260.037 420.736 312.163 405.773 349.019 381.781C386.067 407.52 440.091 423.736 500.25 423.736C562.721 423.736 618.577 406.249 655.676 378.772Z" fill="white"/>
<path d="M655.676 378.772L656.496 378.199L655.907 377.356L655.081 377.968L655.676 378.772ZM994.012 206.665L993.148 206.161L992.739 206.861L993.34 207.406L994.012 206.665ZM1001.11 73.9581L1001.97 73.4462L1001.11 73.9581ZM795.554 38.601L795.098 39.4907L795.539 39.7171L795.986 39.5029L795.554 38.601ZM524.225 67.1828L523.486 67.856L524.155 68.5904L524.893 67.9268L524.225 67.1828ZM152.264 174.843L152.419 175.831L153.416 175.674L153.251 174.679L152.264 174.843ZM349.019 381.781L349.59 380.96L349.038 380.576L348.474 380.943L349.019 381.781ZM654.856 379.344C689.442 428.87 758.022 462.503 836.851 462.503V460.503C758.536 460.503 690.635 427.084 656.496 378.199L654.856 379.344ZM836.851 462.503C893.617 462.503 945.047 445.066 982.307 416.827C1019.57 388.589 1042.7 349.504 1042.7 306.251H1040.7C1040.7 348.742 1017.98 387.283 981.099 415.234C944.217 443.185 893.222 460.503 836.851 460.503V462.503ZM1042.7 306.251C1042.7 268.016 1024.62 233.031 994.683 205.923L993.34 207.406C1022.94 234.21 1040.7 268.684 1040.7 306.251H1042.7ZM994.875 207.168C1020.84 162.637 1025.42 112.795 1001.97 73.4462L1000.25 74.47C1023.22 113.023 1018.85 162.065 993.148 206.161L994.875 207.168ZM1001.97 73.4462C965.833 12.8099 876.228 -1.13395 795.123 37.699L795.986 39.5029C876.601 0.905047 964.863 15.0881 1000.25 74.47L1001.97 73.4462ZM796.011 37.7113C763.136 20.8429 723.502 11 680.851 11V13C723.199 13 762.518 22.7737 795.098 39.4907L796.011 37.7113ZM680.851 11C617.807 11 561.339 32.5077 523.557 66.4388L524.893 67.9268C562.266 34.3631 618.241 13 680.851 13V11ZM524.965 66.5095C487.795 25.6853 425.722 -1 355.5 -1V1C425.248 1 486.751 27.51 523.486 67.856L524.965 66.5095ZM355.5 -1C298.734 -1 247.304 16.4367 210.044 44.6751C172.784 72.9139 149.649 111.999 149.649 155.251H151.649C151.649 112.761 174.371 74.2201 211.252 46.269C248.134 18.3175 299.13 1 355.5 1V-1ZM149.649 155.251C149.649 161.943 150.203 168.536 151.278 175.007L153.251 174.679C152.193 168.316 151.649 161.832 151.649 155.251H149.649ZM152.109 173.855C108.215 180.744 69.98 196.477 42.6938 217.853C15.4089 239.228 -1 266.313 -1 295.868H1C1 267.111 16.961 240.553 43.9272 219.427C70.892 198.303 108.789 182.679 152.419 175.831L152.109 173.855ZM-1 295.868C-1 330.824 21.9461 362.315 58.7123 385.014C95.4942 407.723 146.245 421.736 202.25 421.736V419.736C146.555 419.736 96.1812 405.796 59.763 383.312C23.3291 360.818 1 329.874 1 295.868H-1ZM202.25 421.736C260.196 421.736 312.52 406.735 349.565 382.619L348.474 380.943C311.806 404.812 259.877 419.736 202.25 419.736V421.736ZM500.25 422.736C440.255 422.736 386.44 406.561 349.59 380.96L348.449 382.602C385.694 408.478 439.927 424.736 500.25 424.736V422.736ZM655.081 377.968C618.187 405.293 562.553 422.736 500.25 422.736V424.736C562.889 424.736 618.966 407.205 656.271 379.575L655.081 377.968Z" fill="black" mask="url(#path-1-inside-1_40_184)"/>
</svg>
