<svg width="90" height="90" viewBox="0 0 90 90" fill="none" xmlns="http://www.w3.org/2000/svg">
<circle cx="45" cy="45" r="44.5" fill="#F7C6C6" stroke="black"/>
<path d="M58.6013 49.3026C58.6013 53.748 56.6853 57.3847 54.0714 59.9154C51.4469 62.4564 48.1535 63.85 45.4499 63.85C42.7488 63.85 39.5329 62.4585 36.9849 59.9204C34.4469 57.3923 32.6013 53.7545 32.6013 49.3026C32.6013 44.8195 34.4706 39.218 37.065 34.7282C38.3598 32.4874 39.8207 30.5491 41.2934 29.178C42.7794 27.7944 44.2098 27.05 45.4499 27.05C46.6918 27.05 48.1418 27.7961 49.6571 29.1811C51.1586 30.5534 52.6572 32.4927 53.9894 34.7335C56.6594 39.2245 58.6013 44.8239 58.6013 49.3026Z" fill="#9EBDFF" stroke="black"/>
</svg>
