<svg width="1630" height="1419" viewBox="0 0 1630 1419" fill="none" xmlns="http://www.w3.org/2000/svg">
<path d="M968.579 487.75L1025.61 4.26837L1082.64 487.75H968.579Z" fill="#F7C6C6" stroke="black"/>
<path d="M1085.83 589L1030.11 1024.06L974.383 589H1085.83Z" fill="#F7C6C6" stroke="black"/>
<path d="M1070.86 474.531L1624.27 532L1070.86 589.469V474.531Z" fill="#F7C6C6" stroke="black"/>
<path d="M1029.61 589.472L447.198 532L1029.61 474.528V589.472Z" fill="#F7C6C6" stroke="black"/>
<path d="M986.515 575.433L667.588 228.313L1060.83 488.139L986.515 575.433Z" fill="#F8D9D9" stroke="black"/>
<path d="M996.988 481.832L1345.91 191.042L1080.86 559.972L996.988 481.832Z" fill="#F8D9D9" stroke="black"/>
<path d="M1067.65 573.254L705.828 897.512L981.647 497.458L1067.65 573.254Z" fill="#F8D9D9" stroke="black"/>
<path d="M1071.13 492.325L1394.45 898.451L989.914 573.246L1071.13 492.325Z" fill="#F8D9D9" stroke="black"/>
<path d="M1091.61 532C1091.61 568.73 1062.05 598.5 1025.61 598.5C989.16 598.5 959.607 568.73 959.607 532C959.607 495.27 989.16 465.5 1025.61 465.5C1062.05 465.5 1091.61 495.27 1091.61 532Z" fill="#A7BF70" stroke="black"/>
<path d="M354.602 472.104L389.358 330.034L388.727 476.292L354.602 472.104Z" fill="#F7C6C6" stroke="black"/>
<path d="M385.883 508.183L353.35 635.741L352.628 504.102L385.883 508.183Z" fill="#F7C6C6" stroke="black"/>
<path d="M386.198 472.758L549.251 510.098L382.008 506.901L386.198 472.758Z" fill="#F7C6C6" stroke="black"/>
<path d="M368.608 505.259L196.873 466.851L372.799 471.111L368.608 505.259Z" fill="#F7C6C6" stroke="black"/>
<path d="M356.444 499.393L274.008 384.16L381.81 476.072L356.444 499.393Z" fill="#D7B1B1" stroke="black"/>
<path d="M363.608 471.825L478.336 397.858L385.765 498.204L363.608 471.825Z" fill="#D7B1B1" stroke="black"/>
<path d="M380.709 502.225L260.885 585.719L357.825 476.462L380.709 502.225Z" fill="#D7B1B1" stroke="black"/>
<path d="M385.226 478.236L466.832 611.266L358.027 499.409L385.226 478.236Z" fill="#D7B1B1" stroke="black"/>
<circle cx="369.959" cy="488.094" r="20" transform="rotate(6.99683 369.959 488.094)" fill="#A7BF70" stroke="black"/>
<path d="M363.838 1041.98L347.649 750.852L431.353 1030.16L363.838 1041.98Z" fill="#F7C6C6" stroke="black"/>
<path d="M444.074 1090.7L456.085 1353.01L378.244 1102.23L444.074 1090.7Z" fill="#F7C6C6" stroke="black"/>
<path d="M423.405 1024.15L755.972 1000.71L435.231 1091.68L423.405 1024.15Z" fill="#F7C6C6" stroke="black"/>
<path d="M410.088 1096.09L60.3739 1122.52L398.261 1028.55L410.088 1096.09Z" fill="#F7C6C6" stroke="black"/>
<path d="M383.477 1092.3L159.356 920.38L418.317 1033.09L383.477 1092.3Z" fill="#D7B1B1" stroke="black"/>
<path d="M380.315 1035.85L556.2 828.158L437.892 1073.3L380.315 1035.85Z" fill="#D7B1B1" stroke="black"/>
<path d="M431.214 1082.91L251.165 1311.7L372.616 1047.06L431.214 1082.91Z" fill="#D7B1B1" stroke="black"/>
<path d="M425.192 1034.71L658.02 1241.02L385.615 1090.87L425.192 1034.71Z" fill="#D7B1B1" stroke="black"/>
<circle cx="402.251" cy="1062.65" r="39.7227" transform="rotate(-9.93275 402.251 1062.65)" fill="#A7BF70" stroke="black"/>
<path d="M1290.42 905.5L1307.61 760.254L1324.8 905.5H1290.42Z" fill="#F7C6C6" stroke="black"/>
<path d="M1325.86 937.5L1309.11 1068.07L1292.35 937.5H1325.86Z" fill="#F7C6C6" stroke="black"/>
<path d="M1321.86 902.301L1488.24 919.5L1321.86 936.699V902.301Z" fill="#F7C6C6" stroke="black"/>
<path d="M1308.36 936.702L1133.22 919.5L1308.36 902.298V936.702Z" fill="#F7C6C6" stroke="black"/>
<path d="M1295.57 932.362L1199.71 828.029L1317.9 906.124L1295.57 932.362Z" fill="#D7B1B1" stroke="black"/>
<path d="M1299.32 904.126L1404.18 816.734L1324.53 927.61L1299.32 904.126Z" fill="#D7B1B1" stroke="black"/>
<path d="M1320 932.216L1211.24 1029.69L1294.15 909.433L1320 932.216Z" fill="#D7B1B1" stroke="black"/>
<path d="M1321.56 907.856L1418.76 1029.95L1297.14 932.184L1321.56 907.856Z" fill="#D7B1B1" stroke="black"/>
<circle cx="1307.61" cy="919.5" r="20" fill="#A7BF70" stroke="black"/>
</svg>
